# xmcd CD database file generated by GCD 2.95
# 
# Track frame offsets:
#       150
#       3807
#       21459
#       38247
#       60990
#       79776
#       99198
#       115104
#       130266
#       151983
#       169602
#       172563
#       186432
# 
# Disc length: 2795 seconds
# 
# Revision: 3
# Processed by: cddbd v1.4b41PL3 Copyright (c) Steve Scherf et al.
# Submitted via: GCD 2.95
# 
DISCID=8e0ae90d
DTITLE=Super Slinky - Get There
DYEAR=1900
DGENRE=
TTITLE0=All Aboard!
TTITLE1=Full Speed Ahead
TTITLE2=Get There
TTITLE3=The Outsider
TTITLE4=Little Secret
TTITLE5=New Page
TTITLE6=Patik Taking A Leak
TTITLE7=Chatroom Love
TTITLE8=Fabled Birdy
TTITLE9=I Paid No Heed
TTITLE10=Gloomy
TTITLE11=@ A Lo Ebb
TTITLE12=I Just Love It
EXTD=
EXTT0=
EXTT1=
EXTT2=
EXTT3=
EXTT4=
EXTT5=
EXTT6=
EXTT7=
EXTT8=
EXTT9=
EXTT10=
EXTT11=
EXTT12=
PLAYORDER=
